<?xml version="1.0" standalone="no"?>
<!DOCTYPE svg PUBLIC "-//W3C//DTD SVG 20010904//EN"
 "http://www.w3.org/TR/2001/REC-SVG-20010904/DTD/svg10.dtd">
<svg version="1.0" xmlns="http://www.w3.org/2000/svg"
 width="1024.000000pt" height="1024.000000pt" viewBox="0 0 1024.000000 1024.000000"
 preserveAspectRatio="xMidYMid meet">

<g transform="translate(0.000000,1024.000000) scale(0.100000,-0.100000)"
fill="#000000" stroke="none">
<path d="M4330 8799 c-218 -4 -299 -10 -390 -27 -335 -62 -643 -197 -916 -403
-247 -187 -388 -354 -540 -644 -99 -188 -181 -457 -203 -663 -7 -62 -11 -316
-11 -635 0 -482 2 -543 20 -653 19 -120 66 -289 115 -421 56 -148 202 -395
323 -544 79 -98 229 -241 290 -275 26 -15 48 -28 50 -29 4 -3 -76 -277 -107
-366 -17 -46 -69 -174 -117 -284 -159 -367 -166 -386 -167 -445 -3 -118 81
-209 180 -196 46 6 329 116 483 188 202 94 501 289 682 445 38 32 105 90 150
129 l83 72 50 -9 c69 -11 2005 -11 2131 1 138 12 334 54 479 101 171 56 433
188 585 295 188 132 410 358 472 479 11 22 36 61 54 86 19 26 34 49 34 53 0 6
70 157 116 251 22 44 59 157 99 295 7 25 22 110 33 190 19 131 21 196 23 670
2 544 -2 613 -42 795 -86 393 -323 786 -634 1053 -273 234 -567 380 -919 453
-119 25 -170 31 -326 34 -311 8 -1788 11 -2080 4z m2300 -263 c197 -32 413
-102 560 -183 66 -37 242 -154 293 -195 l29 -24 -104 -99 c-151 -146 -202
-198 -419 -425 -109 -113 -244 -252 -300 -310 -384 -391 -552 -563 -600 -616
l-56 -61 48 -22 c72 -33 136 -101 155 -166 14 -49 14 -60 0 -115 -37 -142
-151 -231 -281 -217 -112 11 -182 79 -221 214 -4 15 -125 -111 -282 -294 -62
-72 -117 -133 -123 -135 -6 -2 -11 -273 -14 -734 -2 -402 -7 -743 -10 -757 -8
-29 -29 -27 -33 3 -5 42 -5 66 -1 80 3 10 -3 15 -16 15 -11 0 -19 -6 -18 -12
2 -7 -2 -13 -8 -13 -6 0 -9 -6 -6 -12 2 -7 7 -24 11 -38 6 -19 5 -22 -3 -10
-10 13 -12 13 -22 0 -9 -12 -10 -11 -4 5 8 26 8 26 0 52 -4 13 -11 21 -15 18
-5 -3 -11 13 -15 35 -8 47 -21 61 -20 22 0 -21 -5 -27 -23 -28 -40 -2 -37 -14
4 -15 30 -2 33 -3 12 -6 -16 -2 -28 -11 -28 -19 0 -17 -46 -19 -53 -1 -3 6 -6
3 -6 -8 -1 -14 6 -21 19 -22 21 -2 69 -33 70 -46 0 -4 -11 0 -25 9 -15 10 -38
15 -60 12 -29 -3 -34 -1 -29 11 12 28 16 71 7 71 -5 0 -10 -10 -10 -22 -4 -43
-13 -65 -27 -65 -8 0 -13 4 -10 8 2 4 0 10 -5 13 -5 4 -12 -4 -14 -16 -4 -20
-4 -19 -6 5 -1 18 4 27 14 27 8 0 15 -4 15 -10 0 -5 4 -10 10 -10 5 0 7 7 4
15 -4 8 -16 15 -28 15 -16 0 -21 7 -23 30 -2 25 2 30 19 30 12 0 19 2 16 5 -3
3 -24 3 -47 -1 -31 -5 -41 -11 -41 -25 0 -10 -8 -23 -17 -28 -15 -9 -13 -11
12 -11 17 -1 24 -4 17 -7 -7 -3 -25 -2 -40 2 -23 6 -25 8 -9 16 21 12 23 67 2
75 -8 4 -15 12 -15 20 0 9 -11 14 -28 14 -24 0 -28 4 -27 23 1 12 -2 25 -8 28
-6 4 -4 16 6 29 14 20 14 24 1 38 -13 12 -13 16 -2 23 9 6 5 8 -12 7 -20 -2
-26 2 -28 21 -2 13 -13 33 -24 45 -12 11 -17 15 -13 7 6 -10 2 -12 -14 -6 -15
5 -21 2 -21 -9 0 -24 -17 -19 -23 6 -8 28 -7 29 41 31 48 2 34 16 -18 18 -24
1 -28 3 -12 6 12 2 22 8 22 13 0 5 3 15 6 24 3 9 1 16 -5 16 -6 0 -11 -7 -11
-15 0 -8 -7 -15 -16 -15 -14 0 -14 3 -4 15 11 13 8 15 -18 15 -37 0 -43 8 -49
70 -4 42 -2 49 16 55 17 5 18 9 9 37 -9 24 -8 33 0 36 7 2 12 10 12 18 0 8 -3
13 -7 11 -5 -1 -8 3 -8 8 0 5 4 9 10 7 5 -2 7 0 2 4 -10 11 23 45 37 37 6 -3
8 -2 3 2 -4 5 1 18 10 29 9 12 -24 -19 -75 -69 -62 -61 -88 -92 -79 -97 8 -5
5 -8 -10 -8 -12 0 -23 -4 -25 -9 -1 -5 -156 -165 -343 -356 -468 -478 -542
-554 -576 -599 -16 -21 -29 -36 -29 -33 0 7 -9 0 -82 -67 -26 -23 -85 -77
-132 -120 -47 -43 -86 -82 -86 -86 0 -5 -23 -32 -50 -61 -28 -29 -48 -59 -46
-66 3 -7 0 -13 -7 -13 -8 0 -6 -4 3 -10 13 -9 13 -10 0 -10 -8 0 -49 -20 -90
-45 -41 -24 -76 -42 -79 -40 -4 4 15 47 85 200 37 82 103 243 140 346 49 137
134 456 134 505 0 41 -1 43 -67 82 -102 61 -220 160 -314 264 -46 51 -92 102
-103 113 -61 66 -214 356 -261 497 -65 196 -66 200 -75 798 -9 635 -3 755 51
974 24 94 53 172 106 286 204 437 646 784 1163 915 216 55 189 54 1485 51
1067 -3 1212 -5 1305 -20z m383 -1950 c59 -34 114 -99 128 -150 32 -118 -30
-264 -133 -317 -67 -34 -131 -43 -191 -25 -116 34 -186 122 -194 245 -9 129
43 210 170 264 61 25 161 18 220 -17z m-2411 -1479 c-7 -8 -9 -17 -5 -20 3 -4
-1 -7 -11 -7 -15 0 -15 2 0 25 9 14 19 23 22 21 3 -3 0 -12 -6 -19z m8 -247
c0 -5 -7 -10 -15 -10 -8 0 -15 5 -15 10 0 6 7 10 15 10 8 0 15 -4 15 -10z m29
-74 c-2 -2 -17 -6 -34 -10 -22 -5 -26 -4 -15 4 14 9 59 15 49 6z m105 -14 c2
-4 -4 -8 -15 -8 -10 0 -19 4 -19 8 0 4 6 8 14 8 8 0 17 -4 20 -8z m-151 -27
c-3 -9 -8 -14 -10 -11 -3 3 -2 9 2 15 9 16 15 13 8 -4z m137 -5 c0 -5 -7 -10
-15 -10 -8 0 -15 5 -15 10 0 6 7 10 15 10 8 0 15 -4 15 -10z m-72 -7 c-10 -2
-26 -2 -35 0 -10 3 -2 5 17 5 19 0 27 -2 18 -5z m-71 -35 c-3 -8 -6 -5 -6 6
-1 11 2 17 5 13 3 -3 4 -12 1 -19z m128 2 c-27 -12 -43 -12 -25 0 8 5 22 9 30
9 10 0 8 -3 -5 -9z m52 -22 c-3 -7 -5 -2 -5 12 0 14 2 19 5 13 2 -7 2 -19 0
-25z m-104 -15 c-7 -2 -19 -2 -25 0 -7 3 -2 5 12 5 14 0 19 -2 13 -5z m127
-79 c0 -8 -19 -13 -24 -6 -3 5 1 9 9 9 8 0 15 -2 15 -3z m-18 -66 c-6 -6 -7 0
-4 19 5 21 7 23 10 9 2 -10 0 -22 -6 -28z m55 18 c-8 -9 -15 -10 -23 -2 -16
15 -8 25 15 19 15 -4 17 -8 8 -17z m-60 -42 c-3 -3 -12 -4 -19 -1 -8 3 -5 6 6
6 11 1 17 -2 13 -5z m59 -12 c-10 -2 -22 0 -28 6 -6 6 0 7 19 4 21 -5 23 -7 9
-10z m354 -22 c0 -13 -5 -18 -15 -14 -16 7 -19 17 -8 27 12 13 23 7 23 -13z
m-20 -30 c8 -5 11 -10 5 -10 -5 0 -17 5 -25 10 -8 5 -10 10 -5 10 6 0 17 -5
25 -10z m-210 -54 c-4 -4 -16 -4 -26 2 -16 9 -14 10 8 9 15 -1 23 -6 18 -11z
m150 10 c0 -2 -9 -6 -20 -9 -11 -3 -20 -1 -20 4 0 5 9 9 20 9 11 0 20 -2 20
-4z m210 -46 c0 -11 -4 -20 -10 -20 -5 0 -10 9 -10 20 0 11 5 20 10 20 6 0 10
-9 10 -20z m-67 -57 c-46 -2 -120 -2 -165 0 -46 1 -9 3 82 3 91 0 128 -2 83
-3z m-1187 -44 c-8 -19 -24 -43 -35 -53 -24 -22 -29 -15 -5 8 14 15 14 16 0
16 -10 0 -16 9 -16 25 0 24 12 30 48 26 6 -1 12 4 12 10 0 7 2 10 5 7 3 -3 -1
-20 -9 -39z m-176 -9 c0 -5 -6 -10 -12 -12 -15 -5 13 -38 31 -38 6 0 11 -4 11
-8 0 -4 14 -13 30 -19 17 -6 30 -7 30 -2 0 5 5 9 11 9 15 0 -14 -38 -48 -63
-17 -12 -90 -67 -164 -123 -74 -55 -154 -112 -179 -126 -25 -14 -78 -44 -118
-67 -56 -32 -76 -39 -90 -32 -16 10 -16 10 1 11 9 0 17 5 17 10 0 6 8 10 18
10 14 0 15 2 2 10 -12 8 -12 10 5 10 11 1 31 14 45 30 16 20 33 30 52 30 20 0
31 7 37 23 5 12 14 35 21 52 8 22 13 26 20 16 7 -12 11 -12 24 2 9 8 16 21 16
27 0 19 27 40 52 41 l23 0 -25 10 -24 10 29 25 c17 14 29 33 27 41 -2 8 1 12
6 9 5 -3 15 7 23 22 7 15 29 45 48 68 27 31 40 39 58 36 13 -2 23 -8 23 -12z
m-506 -499 c3 -5 -1 -11 -9 -14 -9 -4 -12 -1 -8 9 6 16 10 17 17 5z m-40 -20
c3 -5 -9 -14 -27 -20 l-32 -11 25 20 c29 23 27 22 34 11z"/>
<path d="M5226 5774 c-5 -14 -4 -15 9 -4 17 14 19 20 6 20 -5 0 -12 -7 -15
-16z"/>
<path d="M4842 5388 c-7 -7 -12 -16 -12 -21 0 -5 7 -1 16 8 9 9 14 18 12 20
-2 3 -10 -1 -16 -7z"/>
<path d="M4739 5273 c-13 -16 -12 -17 4 -4 9 7 17 15 17 17 0 8 -8 3 -21 -13z"/>
<path d="M4780 4769 c0 -16 4 -28 9 -25 8 5 3 56 -5 56 -2 0 -4 -14 -4 -31z"/>
<path d="M4827 4653 c-10 -10 -8 -23 4 -23 5 0 8 4 4 9 -3 5 3 12 12 14 14 4
15 5 2 6 -9 0 -19 -2 -22 -6z"/>
<path d="M4820 4616 c0 -9 40 -13 46 -5 3 5 -6 9 -20 9 -14 0 -26 -2 -26 -4z"/>
<path d="M4888 4573 c6 -2 18 -2 25 0 6 3 1 5 -13 5 -14 0 -19 -2 -12 -5z"/>
<path d="M5035 4520 c-3 -5 -2 -10 4 -10 5 0 13 5 16 10 3 6 2 10 -4 10 -5 0
-13 -4 -16 -10z"/>
<path d="M4990 4480 c0 -5 5 -10 11 -10 5 0 7 5 4 10 -3 6 -8 10 -11 10 -2 0
-4 -4 -4 -10z"/>
</g>
</svg>
